<svg xmlns="http://www.w3.org/2000/svg" viewBox="0 0 89.58 89.58"><defs><style>.cls-1{fill:#fbfffb;}.cls-2{fill:#d0644e;}</style></defs><g id="Capa_2" data-name="Capa 2"><g id="OBJECTS"><circle class="cls-1" cx="44.79" cy="44.79" r="44.79"/><path class="cls-2" d="M27.38,16.89a7.28,7.28,0,0,0-6.15,7.31V71.66a1.08,1.08,0,0,0,1.09,1.09h0a1.09,1.09,0,0,0,1.09-1.09V46a5.07,5.07,0,0,1,4.43-5.12,4.93,4.93,0,0,1,5.42,4.9V71.66a1.09,1.09,0,0,0,1.09,1.09h0a1.09,1.09,0,0,0,1.1-1.09V23.93A7.13,7.13,0,0,0,27.38,16.89Z"/><path class="cls-2" d="M59.84,16.89a7.28,7.28,0,0,0-6.15,7.31V71.66a1.09,1.09,0,0,0,1.09,1.09h0a1.09,1.09,0,0,0,1.09-1.09V46a5.08,5.08,0,0,1,4.44-5.12,4.92,4.92,0,0,1,5.41,4.9V71.66a1.09,1.09,0,0,0,1.1,1.09h0a1.09,1.09,0,0,0,1.09-1.09V23.93A7.13,7.13,0,0,0,59.84,16.89Z"/><path class="cls-2" d="M43.59,24.58a7.3,7.3,0,0,0-6.15,7.32V71.66a1.09,1.09,0,0,0,1.09,1.09h0a1.09,1.09,0,0,0,1.09-1.09V53.71a5.08,5.08,0,0,1,4.44-5.12,4.93,4.93,0,0,1,5.41,4.9V71.66a1.09,1.09,0,0,0,1.1,1.09h0a1.09,1.09,0,0,0,1.09-1.09v-40A7.13,7.13,0,0,0,43.59,24.58Z"/></g></g></svg>