<svg xmlns="http://www.w3.org/2000/svg" viewBox="0 0 253.82 89.58"><defs><style>.cls-1{font-size:39.97px;font-family:OpenSans-Bold, OpenSans Bold;font-weight:700;}.cls-1,.cls-2,.cls-6{fill:#fbfffb;}.cls-2{font-size:10.51px;font-family:JosefinSans-SemiBold, JosefinSans SemiBold;font-weight:600;letter-spacing:0.2em;}.cls-3{letter-spacing:0.19em;}.cls-4{letter-spacing:0.2em;}.cls-5{letter-spacing:0.19em;}.cls-7{fill:#d0644e;}</style></defs><g id="Capa_2" data-name="Capa 2"><g id="OBJECTS"><text class="cls-1" transform="translate(107.37 55.7)">b</text><text class="cls-1" transform="translate(160.15 59.15)">o</text><text class="cls-1" transform="translate(134.65 52.01)">o</text><text class="cls-1" transform="translate(186.94 55.7)">k</text><text class="cls-1" transform="translate(210.17 57.53)">e</text><text class="cls-1" transform="translate(234.55 53.87)">a</text><text class="cls-2" transform="translate(109.33 75.53)">Lib<tspan class="cls-3" x="19.7" y="0">r</tspan><tspan class="cls-4" x="25.14" y="0">os y </tspan><tspan class="cls-5" x="54.98" y="0">c</tspan><tspan class="cls-4" x="61.73" y="0">ómics</tspan></text><circle class="cls-6" cx="44.79" cy="44.79" r="44.79"/><path class="cls-7" d="M27.38,16.89a7.28,7.28,0,0,0-6.15,7.31V71.66a1.08,1.08,0,0,0,1.09,1.09h0a1.09,1.09,0,0,0,1.09-1.09V46a5.07,5.07,0,0,1,4.43-5.12,4.93,4.93,0,0,1,5.42,4.9V71.66a1.09,1.09,0,0,0,1.09,1.09h0a1.09,1.09,0,0,0,1.1-1.09V23.93A7.13,7.13,0,0,0,27.38,16.89Z"/><path class="cls-7" d="M59.84,16.89a7.28,7.28,0,0,0-6.15,7.31V71.66a1.09,1.09,0,0,0,1.09,1.09h0a1.09,1.09,0,0,0,1.09-1.09V46a5.08,5.08,0,0,1,4.44-5.12,4.92,4.92,0,0,1,5.41,4.9V71.66a1.09,1.09,0,0,0,1.1,1.09h0a1.09,1.09,0,0,0,1.09-1.09V23.93A7.13,7.13,0,0,0,59.84,16.89Z"/><path class="cls-7" d="M43.59,24.58a7.3,7.3,0,0,0-6.15,7.32V71.66a1.09,1.09,0,0,0,1.09,1.09h0a1.09,1.09,0,0,0,1.09-1.09V53.71a5.08,5.08,0,0,1,4.44-5.12,4.93,4.93,0,0,1,5.41,4.9V71.66a1.09,1.09,0,0,0,1.1,1.09h0a1.09,1.09,0,0,0,1.09-1.09v-40A7.13,7.13,0,0,0,43.59,24.58Z"/></g></g></svg>